<svg width="284" height="290" viewBox="0 0 284 290" fill="none" xmlns="http://www.w3.org/2000/svg">
<g filter="url(#filter0_d_112_197)">
<path d="M141.715 282C217.773 282 279.431 218.872 279.431 141C279.431 63.1278 217.773 0 141.715 0C65.6572 0 4 63.1278 4 141C4 218.872 65.6572 282 141.715 282Z" fill="#8D5A24" style="fill:#8D5A24;fill:color(display-p3 0.5529 0.3529 0.1412);fill-opacity:1;"/>
<mask id="mask0_112_197" style="mask-type:luminance" maskUnits="userSpaceOnUse" x="113" y="108" width="159" height="173">
<path d="M271.05 108.716H113.139V280.958H271.05V108.716Z" fill="white" style="fill:white;fill-opacity:1;"/>
</mask>
<g mask="url(#mask0_112_197)">
<path d="M138.408 280.485C138.379 280.485 138.337 280.481 138.312 280.481C138.342 280.485 138.375 280.485 138.408 280.485Z" fill="#E1F5FD" style="fill:#E1F5FD;fill:color(display-p3 0.8824 0.9608 0.9922);fill-opacity:1;"/>
<path d="M136.492 280.468C136.459 280.468 136.434 280.468 136.401 280.468C136.43 280.464 136.459 280.468 136.492 280.468Z" fill="#E1F5FD" style="fill:#E1F5FD;fill:color(display-p3 0.8824 0.9608 0.9922);fill-opacity:1;"/>
<path d="M134.772 280.434C134.755 280.43 134.738 280.43 134.721 280.43C134.738 280.434 134.755 280.434 134.772 280.434Z" fill="#E1F5FD" style="fill:#E1F5FD;fill:color(display-p3 0.8824 0.9608 0.9922);fill-opacity:1;"/>
<path d="M134.673 280.434C134.656 280.434 134.643 280.43 134.626 280.43C134.639 280.43 134.656 280.434 134.673 280.434Z" fill="#E1F5FD" style="fill:#E1F5FD;fill:color(display-p3 0.8824 0.9608 0.9922);fill-opacity:1;"/>
<path d="M133.309 280.396C133.297 280.396 133.288 280.396 133.275 280.396C133.284 280.392 133.301 280.396 133.309 280.396Z" fill="#E1F5FD" style="fill:#E1F5FD;fill:color(display-p3 0.8824 0.9608 0.9922);fill-opacity:1;"/>
<path d="M132.994 280.388C132.977 280.388 132.973 280.388 132.96 280.388C132.968 280.383 132.981 280.388 132.994 280.388Z" fill="#E1F5FD" style="fill:#E1F5FD;fill:color(display-p3 0.8824 0.9608 0.9922);fill-opacity:1;"/>
</g>
<mask id="mask1_112_197" style="mask-type:luminance" maskUnits="userSpaceOnUse" x="17" y="0" width="255" height="282">
<path d="M271.049 0.0212631H17.2812V282H271.049V0.0212631Z" fill="white" style="fill:white;fill-opacity:1;"/>
</mask>
<g mask="url(#mask1_112_197)">
<path d="M221.589 26.2257C215.967 22.0774 200.911 11.2535 192.093 9.47931C180.104 4.16948 161.596 0.863592 151.522 0.0254211C172.608 29.7188 207.041 81.6259 207.041 119.063C207.037 181.926 157.349 232.884 96.0582 232.884C65.8182 232.884 36.7376 221.694 16.7202 201.578C35.5532 247.894 80.479 279.928 131.663 283.183H131.667C131.692 283.183 131.717 283.187 131.742 283.187C131.746 283.187 131.742 283.187 131.746 283.187C131.821 283.191 131.9 283.195 131.975 283.2C131.979 283.2 131.979 283.2 131.983 283.2C132.012 283.2 132.029 283.2 132.058 283.204H132.07C132.145 283.208 132.216 283.212 132.291 283.217C132.295 283.217 132.299 283.217 132.303 283.217C132.324 283.217 132.349 283.217 132.374 283.221H132.39C132.465 283.225 132.532 283.225 132.61 283.229C132.615 283.229 132.623 283.229 132.623 283.229C132.648 283.229 132.669 283.229 132.694 283.234H132.71C132.785 283.238 132.856 283.242 132.926 283.246H132.943C132.968 283.246 132.989 283.246 133.009 283.251H133.03C133.055 283.251 133.076 283.255 133.097 283.255H133.105C133.147 283.259 133.201 283.259 133.242 283.263C133.246 283.263 133.259 283.263 133.263 283.263C133.288 283.263 133.3 283.263 133.325 283.263C133.334 283.263 133.342 283.263 133.35 283.263C133.371 283.263 133.388 283.263 133.413 283.268H133.433C133.471 283.268 133.516 283.272 133.55 283.272C133.558 283.272 133.57 283.272 133.583 283.272C133.6 283.272 133.62 283.272 133.641 283.272H133.674C133.691 283.276 133.716 283.276 133.732 283.276H133.762C133.795 283.276 133.832 283.281 133.87 283.281C133.878 283.281 133.895 283.281 133.903 283.281C133.92 283.281 133.944 283.281 133.961 283.281C133.969 283.281 133.982 283.281 133.99 283.281C134.011 283.281 134.032 283.281 134.052 283.281C134.061 283.281 134.073 283.281 134.082 283.281C134.115 283.281 134.152 283.285 134.181 283.285C134.194 283.285 134.21 283.285 134.223 283.285C134.239 283.285 134.256 283.285 134.273 283.285C134.285 283.285 134.298 283.285 134.31 283.285C134.327 283.285 134.343 283.285 134.36 283.285C134.372 283.285 134.389 283.285 134.402 283.285C134.431 283.285 134.46 283.289 134.489 283.289C134.505 283.289 134.514 283.289 134.535 283.289C134.547 283.289 134.568 283.289 134.58 283.289C134.597 283.289 134.609 283.289 134.626 283.289C134.643 283.289 134.655 283.289 134.672 283.289C134.688 283.289 134.705 283.289 134.722 283.289C134.742 283.289 134.767 283.289 134.788 283.293C134.809 283.293 134.825 283.293 134.85 283.293C134.863 283.293 134.884 283.293 134.896 283.293C134.913 283.293 134.925 283.293 134.942 283.293C134.958 283.293 134.971 283.293 134.987 283.293C135.008 283.293 135.021 283.293 135.037 283.293C135.058 283.293 135.079 283.293 135.1 283.293C135.12 283.293 135.145 283.293 135.166 283.293H135.212C135.228 283.293 135.241 283.298 135.258 283.298H135.303C135.324 283.298 135.337 283.298 135.353 283.302C135.37 283.302 135.386 283.302 135.395 283.302H135.478C135.49 283.302 135.511 283.302 135.524 283.306H135.619C135.632 283.306 135.648 283.306 135.661 283.306C135.681 283.306 135.702 283.306 135.727 283.306C135.748 283.306 135.769 283.306 135.794 283.306C135.806 283.306 135.823 283.306 135.835 283.306C135.852 283.306 135.868 283.306 135.885 283.306C135.902 283.306 135.918 283.306 135.931 283.306C135.947 283.306 135.968 283.306 135.989 283.306H136.026C136.055 283.306 136.089 283.306 136.114 283.306C136.126 283.306 136.143 283.306 136.147 283.306C136.168 283.306 136.188 283.306 136.209 283.306H136.247C136.267 283.306 136.284 283.306 136.305 283.306C136.321 283.306 136.33 283.306 136.342 283.306C136.367 283.306 136.405 283.306 136.429 283.306C136.442 283.306 136.454 283.306 136.467 283.306H136.521C136.537 283.306 136.55 283.306 136.567 283.306C136.583 283.306 136.604 283.306 136.625 283.306H136.658C136.683 283.306 136.724 283.306 136.749 283.306C136.762 283.306 136.77 283.306 136.779 283.306C136.799 283.306 136.82 283.306 136.845 283.306H136.882C136.903 283.306 136.92 283.306 136.945 283.306H136.974C137.007 283.306 137.036 283.306 137.065 283.306H137.09C137.115 283.306 137.132 283.306 137.161 283.306C137.173 283.306 137.182 283.306 137.194 283.306H137.265C137.273 283.306 137.281 283.306 137.294 283.306C137.323 283.306 137.356 283.306 137.385 283.306H137.41C137.435 283.306 137.456 283.306 137.485 283.306H137.585C137.593 283.306 137.605 283.306 137.614 283.306C137.643 283.306 137.676 283.306 137.709 283.306H137.801C137.813 283.306 137.826 283.306 137.834 283.306H137.93C137.959 283.306 137.992 283.306 138.021 283.306H138.038C138.067 283.306 138.088 283.306 138.117 283.306H138.341C138.349 283.31 138.353 283.31 138.358 283.31H138.661C138.665 283.31 138.665 283.31 138.669 283.31C138.703 283.31 138.727 283.31 138.757 283.31H138.881C138.914 283.31 138.948 283.315 138.977 283.315H139.812C139.825 283.315 139.829 283.315 139.841 283.319H139.937C212.651 283.319 274.897 227.204 279.14 150.815C281.637 106.205 262.58 52.1835 221.589 26.2257Z" fill="#65340C" style="fill:#65340C;fill:color(display-p3 0.3961 0.2039 0.0471);fill-opacity:1;"/>
</g>
<path d="M18.8644 166.996C14.4553 139.838 24.2583 115.987 40.7642 113.732C57.2659 111.473 44.338 135.75 48.7429 162.907C53.1519 190.065 73.2274 209.824 56.7257 212.083C40.224 214.342 23.2693 194.154 18.8644 166.996Z" fill="#F4F8F9" style="fill:#F4F8F9;fill:color(display-p3 0.9569 0.9725 0.9765);fill-opacity:1;"/>
<path d="M58.7788 92.0202C58.7788 83.5576 52.2878 76.6948 44.2759 76.6948C36.2639 76.6948 29.7729 83.5533 29.7729 92.0202C29.7729 100.483 36.2639 107.341 44.2759 107.341C52.2836 107.341 58.7788 100.478 58.7788 92.0202Z" fill="#F4F8F9" style="fill:#F4F8F9;fill:color(display-p3 0.9569 0.9725 0.9765);fill-opacity:1;"/>
<path d="M279.962 139.243C278.579 179.147 264.67 209.509 264.612 183.057C264.595 174.68 249.793 163.409 249.793 139.17C249.793 114.932 263.955 103.635 264.612 95.2835C267.051 64.2882 280.81 114.749 279.962 139.243Z" fill="#65340C" style="fill:#65340C;fill:color(display-p3 0.3961 0.2039 0.0471);fill-opacity:1;"/>
</g>
<defs>
<filter id="filter0_d_112_197" x="0" y="0" width="284" height="290" filterUnits="userSpaceOnUse" color-interpolation-filters="sRGB">
<feFlood flood-opacity="0" result="BackgroundImageFix"/>
<feColorMatrix in="SourceAlpha" type="matrix" values="0 0 0 0 0 0 0 0 0 0 0 0 0 0 0 0 0 0 127 0" result="hardAlpha"/>
<feOffset dy="4"/>
<feGaussianBlur stdDeviation="2"/>
<feComposite in2="hardAlpha" operator="out"/>
<feColorMatrix type="matrix" values="0 0 0 0 0 0 0 0 0 0 0 0 0 0 0 0 0 0 0.29 0"/>
<feBlend mode="normal" in2="BackgroundImageFix" result="effect1_dropShadow_112_197"/>
<feBlend mode="normal" in="SourceGraphic" in2="effect1_dropShadow_112_197" result="shape"/>
</filter>
</defs>
</svg>
